<svg width="490" height="435" viewBox="0 0 490 435" fill="none" xmlns="http://www.w3.org/2000/svg">
<g opacity="0.1" filter="url(#filter0_f_6_264)">
<path d="M78 30.9029C74.8 257.658 41 329.575 30 404.243H73.5L78 30.9029Z" fill="black"/>
</g>
<g opacity="0.3" filter="url(#filter1_f_6_264)">
<path d="M94.5 79.8253L72 400.176L97 400.68L94.5 79.8253Z" fill="black"/>
</g>
<g filter="url(#filter2_d_6_264)">
<path d="M481 20.4004C446.655 20.0055 208.769 18.5903 94.1196 17.932C90.9247 42.0232 90.7916 287.97 91.1244 407.932C134.255 407.932 367.681 407.603 479.003 407.438C477.805 370.709 479.835 134.109 481 20.4004Z" fill="#FFF68B"/>
</g>
<path opacity="0.02" d="M481 20.4976C446.567 20.4187 209.073 18.0635 94.1291 17.932C93.0026 38.6666 92.5 63.9564 92 95.8436C135.242 95.8436 368.393 95.959 480 95.9261C480.5 73.4474 480.501 43.2523 481 20.4976Z" fill="#222222"/>
<path d="M235.586 216.101C235.237 216.661 234.867 217.093 234.477 217.398C234.086 217.7 233.727 217.851 233.398 217.851C233.146 217.851 232.945 217.755 232.797 217.562C232.651 217.367 232.578 217.108 232.578 216.785C232.578 216.126 232.845 215.45 233.379 214.758C233.915 214.065 234.493 213.718 235.113 213.718C235.384 213.718 235.635 213.834 235.867 214.066L236.414 211.511C236.453 211.337 236.525 211.22 236.629 211.16C236.736 211.1 236.819 211.07 236.879 211.07C237.061 211.07 237.152 211.231 237.152 211.554C237.152 211.612 237.092 211.825 236.973 212.195C236.783 212.768 236.602 213.472 236.43 214.308C236.26 215.142 236.176 215.811 236.176 216.316C236.176 216.837 236.289 217.097 236.516 217.097C236.661 217.097 236.812 217.049 236.969 216.953C237.034 216.906 237.095 216.883 237.152 216.883C237.236 216.883 237.277 216.937 237.277 217.047C237.277 217.179 237.16 217.333 236.926 217.508C236.694 217.682 236.456 217.769 236.211 217.769C235.781 217.769 235.566 217.355 235.566 216.527C235.566 216.386 235.573 216.244 235.586 216.101ZM235.074 214.273C234.652 214.273 234.234 214.56 233.82 215.133C233.406 215.703 233.199 216.23 233.199 216.715C233.199 217.04 233.307 217.203 233.523 217.203C233.727 217.203 233.973 217.096 234.262 216.883C234.553 216.669 234.853 216.329 235.16 215.863C235.467 215.394 235.621 215.043 235.621 214.808C235.621 214.694 235.568 214.577 235.461 214.457C235.357 214.334 235.228 214.273 235.074 214.273ZM240.707 216.297C240.342 216.786 239.982 217.153 239.625 217.398C239.268 217.643 238.941 217.765 238.645 217.765C238.444 217.765 238.271 217.681 238.125 217.511C237.979 217.342 237.906 217.125 237.906 216.859C237.906 216.174 238.212 215.437 238.824 214.648C239.436 213.856 240.044 213.461 240.648 213.461C240.867 213.461 241.03 213.586 241.137 213.836C241.171 213.919 241.224 213.961 241.297 213.961C241.505 213.961 241.609 214.041 241.609 214.203C241.609 214.284 241.596 214.394 241.57 214.535C241.43 215.303 241.359 215.845 241.359 216.16C241.359 216.79 241.479 217.168 241.719 217.293C241.833 217.355 241.891 217.432 241.891 217.523C241.891 217.604 241.835 217.685 241.723 217.765C241.611 217.849 241.503 217.89 241.398 217.89C241.198 217.89 241.033 217.752 240.902 217.476C240.772 217.2 240.707 216.807 240.707 216.297ZM240.469 214.097C240.125 214.097 239.725 214.42 239.27 215.066C238.814 215.709 238.586 216.243 238.586 216.668C238.586 216.967 238.685 217.117 238.883 217.117C239.169 217.117 239.566 216.828 240.074 216.25C240.582 215.672 240.836 215.14 240.836 214.656C240.836 214.284 240.714 214.097 240.469 214.097ZM243.559 216.168C243.585 216.121 243.616 216.056 243.652 215.972C243.829 215.566 243.992 215.248 244.141 215.019C244.289 214.787 244.452 214.566 244.629 214.355C244.809 214.144 244.971 213.984 245.117 213.875C245.266 213.765 245.4 213.69 245.52 213.648C245.639 213.604 245.755 213.582 245.867 213.582C246.094 213.582 246.279 213.651 246.422 213.789C246.565 213.924 246.637 214.083 246.637 214.265C246.637 214.346 246.611 214.419 246.559 214.484C246.509 214.549 246.432 214.582 246.328 214.582C246.219 214.582 246.118 214.534 246.027 214.437C245.934 214.341 245.836 214.293 245.734 214.293C245.464 214.293 245.089 214.621 244.609 215.277C244.13 215.933 243.839 216.656 243.734 217.445C243.708 217.648 243.659 217.782 243.586 217.847C243.513 217.912 243.41 217.945 243.277 217.945C243.15 217.945 243.057 217.85 243 217.66C242.943 217.47 242.914 217.149 242.914 216.699C242.914 216.577 242.921 216.307 242.934 215.89C242.949 215.398 242.98 215.001 243.027 214.699C243.035 214.649 243.048 214.534 243.066 214.351C243.085 214.151 243.107 214.011 243.133 213.933C243.161 213.855 243.217 213.782 243.301 213.715C243.387 213.647 243.479 213.613 243.578 213.613C243.674 213.613 243.746 213.644 243.793 213.707C243.842 213.767 243.867 213.832 243.867 213.902C243.867 214.004 243.841 214.147 243.789 214.332C243.729 214.537 243.694 214.679 243.684 214.758C243.676 214.846 243.661 214.938 243.641 215.035C243.615 215.147 243.589 215.441 243.562 215.918L243.559 216.062V216.168ZM250.23 216.394C250.23 216.66 249.995 216.98 249.523 217.355C249.055 217.73 248.57 217.918 248.07 217.918C247.651 217.918 247.327 217.794 247.098 217.547C246.871 217.299 246.758 216.954 246.758 216.511C246.758 215.767 247.009 215.058 247.512 214.386C248.014 213.715 248.564 213.379 249.16 213.379C249.355 213.379 249.514 213.442 249.637 213.57C249.762 213.698 249.824 213.851 249.824 214.031C249.824 214.432 249.628 214.816 249.234 215.183C248.841 215.55 248.315 215.911 247.656 216.265C247.521 216.336 247.453 216.427 247.453 216.539C247.453 216.755 247.516 216.928 247.641 217.058C247.766 217.188 247.951 217.254 248.195 217.254C248.755 217.254 249.327 216.944 249.91 216.324C249.996 216.238 250.061 216.195 250.105 216.195C250.189 216.195 250.23 216.261 250.23 216.394ZM247.516 215.785C248.62 215.129 249.172 214.601 249.172 214.203C249.172 214.047 249.102 213.968 248.961 213.968C248.721 213.968 248.451 214.144 248.148 214.496C247.849 214.847 247.638 215.277 247.516 215.785ZM257.055 216.101C256.706 216.661 256.336 217.093 255.945 217.398C255.555 217.7 255.195 217.851 254.867 217.851C254.615 217.851 254.414 217.755 254.266 217.562C254.12 217.367 254.047 217.108 254.047 216.785C254.047 216.126 254.314 215.45 254.848 214.758C255.384 214.065 255.962 213.718 256.582 213.718C256.853 213.718 257.104 213.834 257.336 214.066L257.883 211.511C257.922 211.337 257.993 211.22 258.098 211.16C258.204 211.1 258.288 211.07 258.348 211.07C258.53 211.07 258.621 211.231 258.621 211.554C258.621 211.612 258.561 211.825 258.441 212.195C258.251 212.768 258.07 213.472 257.898 214.308C257.729 215.142 257.645 215.811 257.645 216.316C257.645 216.837 257.758 217.097 257.984 217.097C258.13 217.097 258.281 217.049 258.438 216.953C258.503 216.906 258.564 216.883 258.621 216.883C258.704 216.883 258.746 216.937 258.746 217.047C258.746 217.179 258.629 217.333 258.395 217.508C258.163 217.682 257.924 217.769 257.68 217.769C257.25 217.769 257.035 217.355 257.035 216.527C257.035 216.386 257.042 216.244 257.055 216.101ZM256.543 214.273C256.121 214.273 255.703 214.56 255.289 215.133C254.875 215.703 254.668 216.23 254.668 216.715C254.668 217.04 254.776 217.203 254.992 217.203C255.195 217.203 255.441 217.096 255.73 216.883C256.022 216.669 256.322 216.329 256.629 215.863C256.936 215.394 257.09 215.043 257.09 214.808C257.09 214.694 257.036 214.577 256.93 214.457C256.826 214.334 256.697 214.273 256.543 214.273ZM262.176 216.297C261.811 216.786 261.451 217.153 261.094 217.398C260.737 217.643 260.41 217.765 260.113 217.765C259.913 217.765 259.74 217.681 259.594 217.511C259.448 217.342 259.375 217.125 259.375 216.859C259.375 216.174 259.681 215.437 260.293 214.648C260.905 213.856 261.513 213.461 262.117 213.461C262.336 213.461 262.499 213.586 262.605 213.836C262.639 213.919 262.693 213.961 262.766 213.961C262.974 213.961 263.078 214.041 263.078 214.203C263.078 214.284 263.065 214.394 263.039 214.535C262.898 215.303 262.828 215.845 262.828 216.16C262.828 216.79 262.948 217.168 263.188 217.293C263.302 217.355 263.359 217.432 263.359 217.523C263.359 217.604 263.303 217.685 263.191 217.765C263.079 217.849 262.971 217.89 262.867 217.89C262.667 217.89 262.501 217.752 262.371 217.476C262.241 217.2 262.176 216.807 262.176 216.297ZM261.938 214.097C261.594 214.097 261.194 214.42 260.738 215.066C260.283 215.709 260.055 216.243 260.055 216.668C260.055 216.967 260.154 217.117 260.352 217.117C260.638 217.117 261.035 216.828 261.543 216.25C262.051 215.672 262.305 215.14 262.305 214.656C262.305 214.284 262.182 214.097 261.938 214.097ZM270.391 214.629C270.148 214.634 269.63 215.351 268.836 216.781C268.568 217.263 268.411 217.526 268.367 217.57C268.323 217.612 268.241 217.649 268.121 217.683C268.004 217.717 267.906 217.734 267.828 217.734C267.654 217.734 267.566 217.394 267.566 216.715C267.566 216.332 267.648 215.639 267.812 214.636C267.88 214.23 267.914 213.94 267.914 213.765C267.914 213.593 267.991 213.508 268.145 213.508C268.434 213.508 268.578 213.716 268.578 214.133C268.578 214.328 268.53 214.711 268.434 215.281C268.322 215.932 268.264 216.328 268.262 216.468C268.423 216.312 268.66 215.97 268.973 215.441C269.415 214.717 269.741 214.259 269.949 214.066C270.16 213.871 270.378 213.773 270.602 213.773C270.771 213.773 270.905 213.886 271.004 214.113C271.105 214.34 271.167 214.88 271.188 215.734C271.193 215.948 271.212 216.106 271.246 216.211C271.28 216.315 271.305 216.367 271.32 216.367C271.443 216.367 271.708 215.95 272.117 215.117C272.336 214.677 272.548 214.342 272.754 214.113C272.962 213.884 273.193 213.769 273.445 213.769C273.656 213.769 273.81 213.879 273.906 214.097C274.003 214.313 274.072 214.635 274.113 215.062C274.152 215.494 274.212 215.89 274.293 216.25C274.376 216.609 274.527 216.84 274.746 216.941C274.895 217.011 274.969 217.093 274.969 217.187C274.969 217.278 274.906 217.372 274.781 217.468C274.656 217.565 274.542 217.613 274.438 217.613C274.229 217.613 274.043 217.485 273.879 217.23C273.715 216.975 273.591 216.423 273.508 215.574C273.471 215.233 273.436 214.991 273.402 214.847C273.368 214.704 273.315 214.633 273.242 214.633C273.133 214.633 273.003 214.737 272.852 214.945C272.703 215.153 272.462 215.577 272.129 216.215C271.868 216.712 271.671 217.044 271.535 217.211C271.402 217.375 271.273 217.457 271.148 217.457C271.036 217.457 270.936 217.412 270.848 217.324C270.759 217.233 270.703 217.125 270.68 217C270.656 216.872 270.632 216.561 270.605 216.066C270.566 215.243 270.495 214.764 270.391 214.629ZM278.301 216.297C277.936 216.786 277.576 217.153 277.219 217.398C276.862 217.643 276.535 217.765 276.238 217.765C276.038 217.765 275.865 217.681 275.719 217.511C275.573 217.342 275.5 217.125 275.5 216.859C275.5 216.174 275.806 215.437 276.418 214.648C277.03 213.856 277.638 213.461 278.242 213.461C278.461 213.461 278.624 213.586 278.73 213.836C278.764 213.919 278.818 213.961 278.891 213.961C279.099 213.961 279.203 214.041 279.203 214.203C279.203 214.284 279.19 214.394 279.164 214.535C279.023 215.303 278.953 215.845 278.953 216.16C278.953 216.79 279.073 217.168 279.312 217.293C279.427 217.355 279.484 217.432 279.484 217.523C279.484 217.604 279.428 217.685 279.316 217.765C279.204 217.849 279.096 217.89 278.992 217.89C278.792 217.89 278.626 217.752 278.496 217.476C278.366 217.2 278.301 216.807 278.301 216.297ZM278.062 214.097C277.719 214.097 277.319 214.42 276.863 215.066C276.408 215.709 276.18 216.243 276.18 216.668C276.18 216.967 276.279 217.117 276.477 217.117C276.763 217.117 277.16 216.828 277.668 216.25C278.176 215.672 278.43 215.14 278.43 214.656C278.43 214.284 278.307 214.097 278.062 214.097ZM283.023 214.715C282.888 214.715 282.74 214.803 282.578 214.98C282.419 215.157 282.176 215.554 281.848 216.172C281.415 217 281.135 217.471 281.008 217.586C280.883 217.7 280.779 217.758 280.695 217.758C280.388 217.758 280.234 217.609 280.234 217.312C280.234 217.187 280.255 217.01 280.297 216.781C280.44 215.994 280.512 215.165 280.512 214.293C280.512 214.194 280.553 214.084 280.637 213.965C280.723 213.842 280.803 213.781 280.879 213.781C281.014 213.781 281.111 213.823 281.168 213.906C281.225 213.989 281.254 214.157 281.254 214.41C281.254 214.673 281.176 215.215 281.02 216.035C280.967 216.306 280.941 216.478 280.941 216.55C280.941 216.592 280.952 216.613 280.973 216.613C281.012 216.613 281.193 216.302 281.516 215.679C281.841 215.047 282.126 214.601 282.371 214.343C282.616 214.086 282.885 213.957 283.18 213.957C283.414 213.957 283.604 214.063 283.75 214.277C283.898 214.491 284.007 214.88 284.074 215.445C284.147 216.088 284.212 216.489 284.27 216.648C284.329 216.804 284.423 216.883 284.551 216.883C284.632 216.883 284.733 216.854 284.855 216.797C284.876 216.786 284.892 216.781 284.902 216.781C285.014 216.781 285.07 216.846 285.07 216.976C285.07 217.091 284.993 217.213 284.84 217.343C284.686 217.471 284.501 217.535 284.285 217.535C284.064 217.535 283.892 217.448 283.77 217.273C283.65 217.096 283.555 216.626 283.484 215.863C283.411 215.097 283.258 214.715 283.023 214.715ZM288.43 216.304C288.398 216.281 288.311 216.354 288.168 216.523C287.931 216.802 287.628 217.049 287.258 217.265C286.891 217.481 286.549 217.59 286.234 217.59C286 217.59 285.816 217.517 285.684 217.371C285.551 217.222 285.484 217.018 285.484 216.758C285.484 216.354 285.637 215.905 285.941 215.41C286.246 214.912 286.672 214.479 287.219 214.109C287.768 213.739 288.249 213.554 288.66 213.554C288.876 213.554 289.066 213.617 289.23 213.742C289.27 213.773 289.303 213.799 289.332 213.82C289.379 213.854 289.423 213.923 289.465 214.027C289.507 214.129 289.527 214.211 289.527 214.273C289.527 214.312 289.513 214.372 289.484 214.453C289.326 214.885 289.217 215.243 289.16 215.527C289.103 215.811 289.04 216.289 288.973 216.961C288.91 217.565 288.842 218.03 288.77 218.355C288.697 218.681 288.565 218.996 288.375 219.3C288.185 219.605 287.957 219.833 287.691 219.984C287.426 220.138 287.152 220.215 286.871 220.215C286.384 220.215 285.904 220.047 285.43 219.711C284.956 219.375 284.719 219.105 284.719 218.902C284.719 218.774 284.767 218.711 284.863 218.711C284.91 218.711 285.049 218.787 285.281 218.941C285.893 219.35 286.444 219.554 286.934 219.554C287.361 219.554 287.685 219.327 287.906 218.871C288.13 218.415 288.283 217.734 288.363 216.828C288.382 216.622 288.404 216.448 288.43 216.304ZM288.422 214.16C288.201 214.16 287.923 214.274 287.59 214.504C287.259 214.733 286.938 215.069 286.625 215.511C286.312 215.954 286.156 216.325 286.156 216.625C286.156 216.726 286.188 216.807 286.25 216.867C286.315 216.924 286.387 216.953 286.465 216.953C286.697 216.953 286.999 216.833 287.371 216.593C287.746 216.354 288.068 216.022 288.336 215.597C288.607 215.17 288.742 214.836 288.742 214.593C288.742 214.304 288.635 214.16 288.422 214.16ZM291.52 212.488C291.465 212.488 291.423 212.429 291.395 212.312C291.384 212.276 291.37 212.235 291.352 212.191C291.281 212.022 291.246 211.875 291.246 211.75C291.246 211.646 291.307 211.54 291.43 211.433C291.555 211.324 291.693 211.269 291.844 211.269C291.919 211.269 292.004 211.299 292.098 211.359C292.191 211.416 292.238 211.472 292.238 211.527C292.238 211.613 292.206 211.759 292.141 211.965C292.078 212.17 291.977 212.31 291.836 212.383C291.698 212.453 291.592 212.488 291.52 212.488ZM291.008 216.851C291.008 217.049 291.035 217.272 291.09 217.519C291.1 217.566 291.105 217.605 291.105 217.636C291.105 217.683 291.062 217.743 290.977 217.816C290.891 217.892 290.799 217.929 290.703 217.929C290.451 217.929 290.324 217.698 290.324 217.234C290.324 216.755 290.423 215.997 290.621 214.961C290.689 214.599 290.723 214.376 290.723 214.293C290.723 214.129 290.753 213.989 290.812 213.875C290.872 213.758 290.957 213.699 291.066 213.699C291.199 213.699 291.303 213.731 291.379 213.797C291.457 213.859 291.496 213.929 291.496 214.008C291.496 214.086 291.478 214.188 291.441 214.316C291.246 215.004 291.125 215.496 291.078 215.793C291.031 216.09 291.008 216.442 291.008 216.851ZM295.207 216.297C294.842 216.786 294.482 217.153 294.125 217.398C293.768 217.643 293.441 217.765 293.145 217.765C292.944 217.765 292.771 217.681 292.625 217.511C292.479 217.342 292.406 217.125 292.406 216.859C292.406 216.174 292.712 215.437 293.324 214.648C293.936 213.856 294.544 213.461 295.148 213.461C295.367 213.461 295.53 213.586 295.637 213.836C295.671 213.919 295.724 213.961 295.797 213.961C296.005 213.961 296.109 214.041 296.109 214.203C296.109 214.284 296.096 214.394 296.07 214.535C295.93 215.303 295.859 215.845 295.859 216.16C295.859 216.79 295.979 217.168 296.219 217.293C296.333 217.355 296.391 217.432 296.391 217.523C296.391 217.604 296.335 217.685 296.223 217.765C296.111 217.849 296.003 217.89 295.898 217.89C295.698 217.89 295.533 217.752 295.402 217.476C295.272 217.2 295.207 216.807 295.207 216.297ZM294.969 214.097C294.625 214.097 294.225 214.42 293.77 215.066C293.314 215.709 293.086 216.243 293.086 216.668C293.086 216.967 293.185 217.117 293.383 217.117C293.669 217.117 294.066 216.828 294.574 216.25C295.082 215.672 295.336 215.14 295.336 214.656C295.336 214.284 295.214 214.097 294.969 214.097ZM298.059 216.168C298.085 216.121 298.116 216.056 298.152 215.972C298.329 215.566 298.492 215.248 298.641 215.019C298.789 214.787 298.952 214.566 299.129 214.355C299.309 214.144 299.471 213.984 299.617 213.875C299.766 213.765 299.9 213.69 300.02 213.648C300.139 213.604 300.255 213.582 300.367 213.582C300.594 213.582 300.779 213.651 300.922 213.789C301.065 213.924 301.137 214.083 301.137 214.265C301.137 214.346 301.111 214.419 301.059 214.484C301.009 214.549 300.932 214.582 300.828 214.582C300.719 214.582 300.618 214.534 300.527 214.437C300.434 214.341 300.336 214.293 300.234 214.293C299.964 214.293 299.589 214.621 299.109 215.277C298.63 215.933 298.339 216.656 298.234 217.445C298.208 217.648 298.159 217.782 298.086 217.847C298.013 217.912 297.91 217.945 297.777 217.945C297.65 217.945 297.557 217.85 297.5 217.66C297.443 217.47 297.414 217.149 297.414 216.699C297.414 216.577 297.421 216.307 297.434 215.89C297.449 215.398 297.48 215.001 297.527 214.699C297.535 214.649 297.548 214.534 297.566 214.351C297.585 214.151 297.607 214.011 297.633 213.933C297.661 213.855 297.717 213.782 297.801 213.715C297.887 213.647 297.979 213.613 298.078 213.613C298.174 213.613 298.246 213.644 298.293 213.707C298.342 213.767 298.367 213.832 298.367 213.902C298.367 214.004 298.341 214.147 298.289 214.332C298.229 214.537 298.194 214.679 298.184 214.758C298.176 214.846 298.161 214.938 298.141 215.035C298.115 215.147 298.089 215.441 298.062 215.918L298.059 216.062V216.168ZM304.73 216.394C304.73 216.66 304.495 216.98 304.023 217.355C303.555 217.73 303.07 217.918 302.57 217.918C302.151 217.918 301.827 217.794 301.598 217.547C301.371 217.299 301.258 216.954 301.258 216.511C301.258 215.767 301.509 215.058 302.012 214.386C302.514 213.715 303.064 213.379 303.66 213.379C303.855 213.379 304.014 213.442 304.137 213.57C304.262 213.698 304.324 213.851 304.324 214.031C304.324 214.432 304.128 214.816 303.734 215.183C303.341 215.55 302.815 215.911 302.156 216.265C302.021 216.336 301.953 216.427 301.953 216.539C301.953 216.755 302.016 216.928 302.141 217.058C302.266 217.188 302.451 217.254 302.695 217.254C303.255 217.254 303.827 216.944 304.41 216.324C304.496 216.238 304.561 216.195 304.605 216.195C304.689 216.195 304.73 216.261 304.73 216.394ZM302.016 215.785C303.12 215.129 303.672 214.601 303.672 214.203C303.672 214.047 303.602 213.968 303.461 213.968C303.221 213.968 302.951 214.144 302.648 214.496C302.349 214.847 302.138 215.277 302.016 215.785ZM311.387 216.297C311.022 216.786 310.661 217.153 310.305 217.398C309.948 217.643 309.621 217.765 309.324 217.765C309.124 217.765 308.951 217.681 308.805 217.511C308.659 217.342 308.586 217.125 308.586 216.859C308.586 216.174 308.892 215.437 309.504 214.648C310.116 213.856 310.724 213.461 311.328 213.461C311.547 213.461 311.71 213.586 311.816 213.836C311.85 213.919 311.904 213.961 311.977 213.961C312.185 213.961 312.289 214.041 312.289 214.203C312.289 214.284 312.276 214.394 312.25 214.535C312.109 215.303 312.039 215.845 312.039 216.16C312.039 216.79 312.159 217.168 312.398 217.293C312.513 217.355 312.57 217.432 312.57 217.523C312.57 217.604 312.514 217.685 312.402 217.765C312.29 217.849 312.182 217.89 312.078 217.89C311.878 217.89 311.712 217.752 311.582 217.476C311.452 217.2 311.387 216.807 311.387 216.297ZM311.148 214.097C310.805 214.097 310.405 214.42 309.949 215.066C309.493 215.709 309.266 216.243 309.266 216.668C309.266 216.967 309.365 217.117 309.562 217.117C309.849 217.117 310.246 216.828 310.754 216.25C311.262 215.672 311.516 215.14 311.516 214.656C311.516 214.284 311.393 214.097 311.148 214.097ZM314.816 211.105C315.004 211.105 315.098 211.225 315.098 211.465C315.098 211.678 314.984 212.186 314.758 212.988C314.615 213.493 314.504 214.05 314.426 214.66C314.348 215.269 314.309 215.747 314.309 216.093C314.309 216.523 314.336 216.95 314.391 217.375C314.401 217.455 314.406 217.514 314.406 217.55C314.406 217.681 314.362 217.793 314.273 217.886C314.185 217.98 314.091 218.027 313.992 218.027C313.854 218.027 313.758 217.941 313.703 217.769C313.651 217.597 313.625 217.32 313.625 216.937C313.625 216.065 313.729 214.984 313.938 213.695C314.148 212.406 314.315 211.652 314.438 211.433C314.562 211.215 314.689 211.105 314.816 211.105ZM321.703 216.304C321.672 216.281 321.585 216.354 321.441 216.523C321.204 216.802 320.901 217.049 320.531 217.265C320.164 217.481 319.823 217.59 319.508 217.59C319.273 217.59 319.09 217.517 318.957 217.371C318.824 217.222 318.758 217.018 318.758 216.758C318.758 216.354 318.91 215.905 319.215 215.41C319.52 214.912 319.945 214.479 320.492 214.109C321.042 213.739 321.522 213.554 321.934 213.554C322.15 213.554 322.34 213.617 322.504 213.742C322.543 213.773 322.577 213.799 322.605 213.82C322.652 213.854 322.697 213.923 322.738 214.027C322.78 214.129 322.801 214.211 322.801 214.273C322.801 214.312 322.786 214.372 322.758 214.453C322.599 214.885 322.491 215.243 322.434 215.527C322.376 215.811 322.314 216.289 322.246 216.961C322.184 217.565 322.116 218.03 322.043 218.355C321.97 218.681 321.839 218.996 321.648 219.3C321.458 219.605 321.23 219.833 320.965 219.984C320.699 220.138 320.426 220.215 320.145 220.215C319.658 220.215 319.177 220.047 318.703 219.711C318.229 219.375 317.992 219.105 317.992 218.902C317.992 218.774 318.04 218.711 318.137 218.711C318.184 218.711 318.323 218.787 318.555 218.941C319.167 219.35 319.717 219.554 320.207 219.554C320.634 219.554 320.958 219.327 321.18 218.871C321.404 218.415 321.556 217.734 321.637 216.828C321.655 216.622 321.677 216.448 321.703 216.304ZM321.695 214.16C321.474 214.16 321.197 214.274 320.863 214.504C320.533 214.733 320.211 215.069 319.898 215.511C319.586 215.954 319.43 216.325 319.43 216.625C319.43 216.726 319.461 216.807 319.523 216.867C319.589 216.924 319.66 216.953 319.738 216.953C319.97 216.953 320.272 216.833 320.645 216.593C321.02 216.354 321.341 216.022 321.609 215.597C321.88 215.17 322.016 214.836 322.016 214.593C322.016 214.304 321.909 214.16 321.695 214.16ZM326.168 216.297C325.803 216.786 325.443 217.153 325.086 217.398C324.729 217.643 324.402 217.765 324.105 217.765C323.905 217.765 323.732 217.681 323.586 217.511C323.44 217.342 323.367 217.125 323.367 216.859C323.367 216.174 323.673 215.437 324.285 214.648C324.897 213.856 325.505 213.461 326.109 213.461C326.328 213.461 326.491 213.586 326.598 213.836C326.632 213.919 326.685 213.961 326.758 213.961C326.966 213.961 327.07 214.041 327.07 214.203C327.07 214.284 327.057 214.394 327.031 214.535C326.891 215.303 326.82 215.845 326.82 216.16C326.82 216.79 326.94 217.168 327.18 217.293C327.294 217.355 327.352 217.432 327.352 217.523C327.352 217.604 327.296 217.685 327.184 217.765C327.072 217.849 326.964 217.89 326.859 217.89C326.659 217.89 326.493 217.752 326.363 217.476C326.233 217.2 326.168 216.807 326.168 216.297ZM325.93 214.097C325.586 214.097 325.186 214.42 324.73 215.066C324.275 215.709 324.047 216.243 324.047 216.668C324.047 216.967 324.146 217.117 324.344 217.117C324.63 217.117 325.027 216.828 325.535 216.25C326.043 215.672 326.297 215.14 326.297 214.656C326.297 214.284 326.174 214.097 325.93 214.097ZM329.82 213.777C330.089 213.756 330.341 213.731 330.578 213.703C330.812 213.677 331.008 213.664 331.164 213.664C331.362 213.664 331.487 213.682 331.539 213.718C331.591 213.755 331.617 213.819 331.617 213.91C331.617 214.121 331.47 214.235 331.176 214.254C330.798 214.277 330.451 214.31 330.133 214.351C329.815 214.393 329.643 214.428 329.617 214.457C329.594 214.483 329.516 214.793 329.383 215.386C329.25 215.978 329.184 216.362 329.184 216.539C329.184 216.825 329.221 217.017 329.297 217.113C329.372 217.207 329.486 217.254 329.637 217.254C329.861 217.254 330.172 217.086 330.57 216.75C330.724 216.612 330.842 216.543 330.926 216.543C331.038 216.543 331.094 216.603 331.094 216.722C331.094 216.91 330.913 217.153 330.551 217.453C330.191 217.75 329.823 217.898 329.445 217.898C328.815 217.898 328.5 217.527 328.5 216.785C328.5 216.517 328.565 216.101 328.695 215.539C328.823 214.979 328.887 214.643 328.887 214.531C328.887 214.492 328.855 214.472 328.793 214.472L328.387 214.508C328.053 214.508 327.887 214.375 327.887 214.109C327.887 213.958 327.964 213.883 328.117 213.883H328.922C328.977 213.883 329.025 213.858 329.066 213.808C329.108 213.759 329.169 213.593 329.25 213.312C329.331 213.028 329.402 212.748 329.465 212.472C329.527 212.199 329.65 212.062 329.832 212.062C329.944 212.062 330.031 212.101 330.094 212.179C330.156 212.258 330.188 212.33 330.188 212.398C330.188 212.435 330.141 212.621 330.047 212.957L329.82 213.777ZM333.57 213.777C333.839 213.756 334.091 213.731 334.328 213.703C334.562 213.677 334.758 213.664 334.914 213.664C335.112 213.664 335.237 213.682 335.289 213.718C335.341 213.755 335.367 213.819 335.367 213.91C335.367 214.121 335.22 214.235 334.926 214.254C334.548 214.277 334.201 214.31 333.883 214.351C333.565 214.393 333.393 214.428 333.367 214.457C333.344 214.483 333.266 214.793 333.133 215.386C333 215.978 332.934 216.362 332.934 216.539C332.934 216.825 332.971 217.017 333.047 217.113C333.122 217.207 333.236 217.254 333.387 217.254C333.611 217.254 333.922 217.086 334.32 216.75C334.474 216.612 334.592 216.543 334.676 216.543C334.788 216.543 334.844 216.603 334.844 216.722C334.844 216.91 334.663 217.153 334.301 217.453C333.941 217.75 333.573 217.898 333.195 217.898C332.565 217.898 332.25 217.527 332.25 216.785C332.25 216.517 332.315 216.101 332.445 215.539C332.573 214.979 332.637 214.643 332.637 214.531C332.637 214.492 332.605 214.472 332.543 214.472L332.137 214.508C331.803 214.508 331.637 214.375 331.637 214.109C331.637 213.958 331.714 213.883 331.867 213.883H332.672C332.727 213.883 332.775 213.858 332.816 213.808C332.858 213.759 332.919 213.593 333 213.312C333.081 213.028 333.152 212.748 333.215 212.472C333.277 212.199 333.4 212.062 333.582 212.062C333.694 212.062 333.781 212.101 333.844 212.179C333.906 212.258 333.938 212.33 333.938 212.398C333.938 212.435 333.891 212.621 333.797 212.957L333.57 213.777ZM336.871 217.914C336.514 217.914 336.22 217.778 335.988 217.508C335.757 217.237 335.641 216.902 335.641 216.504C335.641 215.832 335.866 215.17 336.316 214.519C336.77 213.866 337.311 213.539 337.941 213.539C338.358 213.539 338.695 213.699 338.953 214.019C339.214 214.34 339.344 214.721 339.344 215.164C339.344 215.841 339.076 216.468 338.539 217.047C338.005 217.625 337.449 217.914 336.871 217.914ZM336.328 216.402C336.328 216.665 336.383 216.88 336.492 217.047C336.604 217.213 336.751 217.297 336.934 217.297C337.322 217.297 337.711 217.084 338.102 216.66C338.492 216.233 338.688 215.759 338.688 215.238C338.688 214.918 338.612 214.659 338.461 214.461C338.312 214.26 338.112 214.16 337.859 214.16C337.44 214.16 337.079 214.418 336.777 214.933C336.478 215.446 336.328 215.936 336.328 216.402Z" fill="#222222"/>
<path d="M111.098 73.0312C111.08 72.9987 111.071 72.958 111.071 72.9092C111.071 72.8359 111.097 72.7863 111.149 72.7603C111.203 72.7342 111.361 72.7196 111.625 72.7163C111.949 72.7147 112.239 72.7033 112.497 72.6821C112.755 72.6593 113.153 72.6113 113.69 72.5381C113.894 72.5104 114.088 72.4966 114.271 72.4966C114.364 72.4966 114.452 72.5023 114.535 72.5137C114.62 72.5251 114.679 72.5365 114.713 72.5479C114.749 72.5576 114.778 72.5869 114.799 72.6357C114.82 72.6829 114.831 72.7196 114.831 72.7456C114.831 72.8612 114.79 72.9189 114.708 72.9189C114.655 72.9189 114.582 72.9141 114.489 72.9043C114.394 72.8962 114.267 72.8921 114.105 72.8921C113.939 72.8921 113.738 72.9043 113.5 72.9287C113.264 72.9515 113.133 72.9897 113.107 73.0435C113.081 73.0972 113.038 73.4146 112.978 73.9956C112.919 74.5767 112.89 75.0096 112.89 75.2944C112.89 75.4263 112.91 75.5785 112.951 75.751C112.957 75.7835 112.96 75.8031 112.96 75.8096C112.96 75.8812 112.941 75.9455 112.902 76.0024C112.863 76.061 112.816 76.0903 112.76 76.0903C112.676 76.0903 112.605 76.0496 112.548 75.9683C112.493 75.8869 112.465 75.659 112.465 75.2847C112.465 74.9299 112.532 74.2373 112.667 73.207C112.674 73.1517 112.677 73.1232 112.677 73.1216C112.677 73.0662 112.647 73.0386 112.587 73.0386C112.489 73.0386 112.303 73.0508 112.028 73.0752C111.753 73.1012 111.557 73.1143 111.439 73.1143C111.264 73.1143 111.15 73.0866 111.098 73.0312ZM115.47 72.731C115.436 72.731 115.41 72.6943 115.392 72.6211C115.386 72.5983 115.377 72.5731 115.365 72.5454C115.321 72.4396 115.299 72.3477 115.299 72.2695C115.299 72.2044 115.338 72.1385 115.414 72.0718C115.492 72.0034 115.578 71.9692 115.673 71.9692C115.72 71.9692 115.773 71.988 115.832 72.0254C115.89 72.0612 115.919 72.0962 115.919 72.1304C115.919 72.1841 115.899 72.2752 115.858 72.4038C115.819 72.5324 115.756 72.6195 115.668 72.665C115.582 72.709 115.516 72.731 115.47 72.731ZM115.15 75.458C115.15 75.5817 115.167 75.7209 115.202 75.8755C115.208 75.9048 115.211 75.9292 115.211 75.9487C115.211 75.978 115.185 76.0155 115.131 76.061C115.077 76.1082 115.02 76.1318 114.96 76.1318C114.802 76.1318 114.723 75.987 114.723 75.6973C114.723 75.3978 114.785 74.9242 114.909 74.2764C114.951 74.0501 114.972 73.911 114.972 73.8589C114.972 73.7563 114.991 73.6693 115.028 73.5977C115.066 73.5244 115.119 73.4878 115.187 73.4878C115.27 73.4878 115.335 73.5081 115.382 73.5488C115.431 73.5879 115.456 73.6318 115.456 73.6807C115.456 73.7295 115.444 73.7938 115.421 73.8735C115.299 74.3032 115.224 74.6108 115.194 74.7964C115.165 74.9819 115.15 75.2025 115.15 75.458ZM117.123 73.5366C117.291 73.5236 117.449 73.5081 117.597 73.4902C117.743 73.474 117.865 73.4658 117.963 73.4658C118.087 73.4658 118.165 73.4772 118.197 73.5C118.23 73.5228 118.246 73.5627 118.246 73.6196C118.246 73.7515 118.154 73.8231 117.97 73.8345C117.734 73.8491 117.517 73.8695 117.318 73.8955C117.12 73.9215 117.012 73.9435 116.996 73.9614C116.981 73.9777 116.933 74.1714 116.85 74.5425C116.767 74.9119 116.725 75.152 116.725 75.2627C116.725 75.4417 116.749 75.5614 116.796 75.6216C116.843 75.6802 116.914 75.7095 117.008 75.7095C117.148 75.7095 117.343 75.6045 117.592 75.3945C117.688 75.3083 117.762 75.2651 117.814 75.2651C117.884 75.2651 117.919 75.3026 117.919 75.3774C117.919 75.4946 117.806 75.6468 117.58 75.834C117.355 76.0195 117.125 76.1123 116.889 76.1123C116.495 76.1123 116.298 75.8804 116.298 75.4165C116.298 75.2489 116.339 74.9893 116.42 74.6377C116.5 74.2878 116.54 74.0778 116.54 74.0078C116.54 73.9834 116.52 73.9712 116.481 73.9712L116.227 73.9932C116.019 73.9932 115.915 73.9102 115.915 73.7441C115.915 73.6497 115.963 73.6025 116.059 73.6025H116.562C116.596 73.6025 116.626 73.5871 116.652 73.5562C116.678 73.5252 116.716 73.4219 116.767 73.2461C116.817 73.0687 116.862 72.8937 116.901 72.7212C116.94 72.5503 117.016 72.4648 117.13 72.4648C117.2 72.4648 117.255 72.4893 117.294 72.5381C117.333 72.5869 117.353 72.6325 117.353 72.6748C117.353 72.6976 117.323 72.814 117.265 73.0239L117.123 73.5366ZM119.186 76.1221C118.963 76.1221 118.779 76.0374 118.634 75.8682C118.489 75.6989 118.417 75.4897 118.417 75.2407C118.417 74.8208 118.558 74.4074 118.839 74.0005C119.123 73.592 119.461 73.3877 119.855 73.3877C120.115 73.3877 120.326 73.4878 120.487 73.688C120.65 73.8882 120.731 74.1266 120.731 74.4033C120.731 74.8265 120.564 75.2188 120.229 75.5801C119.895 75.9414 119.547 76.1221 119.186 76.1221ZM118.847 75.1772C118.847 75.3416 118.881 75.4759 118.949 75.5801C119.019 75.6842 119.111 75.7363 119.225 75.7363C119.468 75.7363 119.711 75.6037 119.955 75.3384C120.199 75.0715 120.321 74.7752 120.321 74.4497C120.321 74.2495 120.274 74.0876 120.18 73.9639C120.087 73.8385 119.962 73.7759 119.804 73.7759C119.542 73.7759 119.316 73.937 119.127 74.2593C118.94 74.5799 118.847 74.8859 118.847 75.1772ZM122.155 71.8667C122.272 71.8667 122.331 71.9416 122.331 72.0913C122.331 72.2248 122.26 72.5422 122.118 73.0435C122.029 73.3592 121.959 73.7075 121.911 74.0884C121.862 74.4692 121.837 74.7679 121.837 74.9844C121.837 75.2529 121.854 75.5199 121.889 75.7852C121.895 75.8356 121.898 75.8722 121.898 75.895C121.898 75.9764 121.871 76.0464 121.815 76.105C121.76 76.1636 121.701 76.1929 121.64 76.1929C121.553 76.1929 121.493 76.1392 121.459 76.0317C121.426 75.9243 121.41 75.751 121.41 75.5117C121.41 74.9665 121.475 74.291 121.605 73.4854C121.737 72.6797 121.841 72.2085 121.918 72.0718C121.996 71.9351 122.075 71.8667 122.155 71.8667ZM123.444 76.1221C123.221 76.1221 123.037 76.0374 122.892 75.8682C122.747 75.6989 122.675 75.4897 122.675 75.2407C122.675 74.8208 122.816 74.4074 123.097 74.0005C123.38 73.592 123.719 73.3877 124.113 73.3877C124.373 73.3877 124.584 73.4878 124.745 73.688C124.908 73.8882 124.989 74.1266 124.989 74.4033C124.989 74.8265 124.822 75.2188 124.486 75.5801C124.153 75.9414 123.805 76.1221 123.444 76.1221ZM123.104 75.1772C123.104 75.3416 123.139 75.4759 123.207 75.5801C123.277 75.6842 123.369 75.7363 123.483 75.7363C123.725 75.7363 123.969 75.6037 124.213 75.3384C124.457 75.0715 124.579 74.7752 124.579 74.4497C124.579 74.2495 124.532 74.0876 124.438 73.9639C124.345 73.8385 124.219 73.7759 124.062 73.7759C123.799 73.7759 123.574 73.937 123.385 74.2593C123.198 74.5799 123.104 74.8859 123.104 75.1772Z" fill="#222222"/>
<defs>
<filter id="filter0_f_6_264" x="0" y="0.902924" width="108" height="433.34" filterUnits="userSpaceOnUse" color-interpolation-filters="sRGB">
<feFlood flood-opacity="0" result="BackgroundImageFix"/>
<feBlend mode="normal" in="SourceGraphic" in2="BackgroundImageFix" result="shape"/>
<feGaussianBlur stdDeviation="15" result="effect1_foregroundBlur_6_264"/>
</filter>
<filter id="filter1_f_6_264" x="52" y="59.8253" width="65" height="360.854" filterUnits="userSpaceOnUse" color-interpolation-filters="sRGB">
<feFlood flood-opacity="0" result="BackgroundImageFix"/>
<feBlend mode="normal" in="SourceGraphic" in2="BackgroundImageFix" result="shape"/>
<feGaussianBlur stdDeviation="10" result="effect1_foregroundBlur_6_264"/>
</filter>
<filter id="filter2_d_6_264" x="85" y="17.932" width="400" height="400" filterUnits="userSpaceOnUse" color-interpolation-filters="sRGB">
<feFlood flood-opacity="0" result="BackgroundImageFix"/>
<feColorMatrix in="SourceAlpha" type="matrix" values="0 0 0 0 0 0 0 0 0 0 0 0 0 0 0 0 0 0 127 0" result="hardAlpha"/>
<feOffset dx="-1" dy="5"/>
<feGaussianBlur stdDeviation="2.5"/>
<feComposite in2="hardAlpha" operator="out"/>
<feColorMatrix type="matrix" values="0 0 0 0 0 0 0 0 0 0 0 0 0 0 0 0 0 0 0.3 0"/>
<feBlend mode="normal" in2="BackgroundImageFix" result="effect1_dropShadow_6_264"/>
<feBlend mode="normal" in="SourceGraphic" in2="effect1_dropShadow_6_264" result="shape"/>
</filter>
</defs>
</svg>
